PathFileType	4	(X/Y/Z)	T1_P1_Vision_NoMovement_1_0-649.trc
DataRate	CameraRate	NumFrames	NumMarkers	Units	OrigDataRate	OrigDataStartFrame	OrigNumFrames
60	60	7	27	m	60	486	649
Frame#	Time	RHip			RKnee			RAnkle			RBigToe			RSmallToe			RHeel			LHip			LKnee			LAnkle			LBigToe			LSmallToe			LHeel			Neck			Head			Nose			RShoulder			RElbow			RWrist			RThumb			RIndex			RPinky			LShoulder			LElbow			LWrist			LThumb			LIndex			LPinky		
		X1	Y1	Z1	X2	Y2	Z2	X3	Y3	Z3	X4	Y4	Z4	X5	Y5	Z5	X6	Y6	Z6	X7	Y7	Z7	X8	Y8	Z8	X9	Y9	Z9	X10	Y10	Z10	X11	Y11	Z11	X12	Y12	Z12	X13	Y13	Z13	X14	Y14	Z14	X15	Y15	Z15	X16	Y16	Z16	X17	Y17	Z17	X18	Y18	Z18	X19	Y19	Z19	X20	Y20	Z20	X21	Y21	Z21	X22	Y22	Z22	X23	Y23	Z23	X24	Y24	Z24	X25	Y25	Z25	X26	Y26	Z26	X27	Y27	Z27
487	8.116666666666667	-66.17824248104543	3789.295756641672	-546.1724959688772	287.4304759147544	3974.453373974185	-525.4584923506221	641.0675206935981	4154.844760503885	-532.2566855207332	694.846752035928	4023.5496879753773	-458.2550648600431	688.3719207233075	3972.2750974508153	-498.41153686328244	684.1449375168373	4205.279530798446	-534.1063536958194	-104.53740079383124	3904.8256506705443	-363.896841019295	234.99504012287179	3984.020565776753	-367.67445442576354	620.9893312625713	4258.811150395637	-456.4918346180621	665.8888502378214	3987.309155838287	-348.84780778172353	673.7420186497594	4119.789920768145	-342.4127219285919	670.3206068219381	4303.579176874147	-481.74427003609867	-671.8625981651824	3663.827610338446	-498.64964861301974	-916.4013212537369	3539.5564217590563	-431.6327725442583	-778.4767411996022	3553.888859369391	-403.41845596608175	-554.3413060036288	3659.1206449448273	-655.3866677883103	-278.7810584653624	3694.826434677658	-689.0070736147502	-23.6076842019193	3651.5505057848554	-598.617730944156	85.17404441349218	3750.2437377249785	-553.2593053845056	113.59530798034832	3746.215863855161	-561.567878083526	105.1102356298269	3727.0946442898116	-586.6210670180895	-617.4000887681245	3791.5948704225434	-384.3490387381066	-381.30979164851	3984.8284774473664	-346.4691171773365	-125.79510778114901	3962.4647487306183	-262.87652755940263	11.637855892539957	3872.8068531186773	-274.4401848982453	21.296046655768045	3860.9248931064076	-212.49920211983695	-0.09734869476852534	3976.784545961017	-216.65894458595108
488	8.133333333333333	-66.14479816714666	3789.203955917197	-546.160929384956	287.70063720907564	3966.605381411404	-523.8587669756109	639.3830568812285	4153.75697741057	-532.3604671473713	694.1570996106726	4027.802382683478	-458.36409401471906	687.7616460789302	3973.949973982024	-500.3416232824777	683.6890607752116	4200.213931172829	-532.8887196609663	-104.47086904433172	3904.9712297050014	-363.983402746694	235.37287484425826	3991.0222784876883	-368.9724277519406	622.5298875133235	4266.59820785054	-460.9372142179592	667.6437702454105	3992.4805341509064	-349.9723692026986	674.310532976315	4119.954587519142	-342.4782734471767	673.3610186724967	4311.052012451376	-486.7428779311585	-670.6613950570959	3664.142406705204	-498.66039748055346	-916.3922553186479	3539.6072566822036	-431.64310408004644	-778.50976444078	3553.929311218587	-403.44010417470747	-554.1531426913652	3657.8426104429136	-654.2750576733869	-278.6913242455922	3694.7106138183203	-688.9681650819796	-23.06593473867624	3651.54440672072	-598.1848073760883	85.19577408654507	3750.2385677407115	-553.2727137110322	114.76816200688351	3746.698299947007	-561.8270228266576	104.97822368755516	3717.4623718162125	-584.8000424552063	-615.8763578664818	3792.6119665647584	-384.70640269504656	-381.3133774919643	3984.755679670044	-346.4210532034633	-125.80573650524532	3962.508329365705	-262.9381836626956	13.597210050449352	3873.802722173018	-274.74612562034093	21.228664354439324	3856.135713651213	-209.414690349053	0.1732876580658654	3977.291055882207	-217.23986583903786
489	8.15	-66.12982748334828	3789.104970973326	-546.1466826887267	287.43913983695666	3956.695249251128	-522.8349493382146	639.4778809590539	4153.489200610196	-532.2489496825943	692.9985263167227	4024.962495709607	-456.2830620066046	687.1220462982345	3971.0292823369173	-501.8959613008045	682.5741070503842	4196.966147386451	-532.0952623606207	-105.71303161971402	3904.2085722294282	-363.7028034797859	235.74175161038787	3998.4860316120103	-370.5371180446656	623.5097227885448	4268.284032472883	-460.947839232098	669.55991590853	3995.9678906700146	-351.32822840682894	676.6963157227649	4120.911495846115	-342.6414163408656	675.809081302644	4315.2338590671825	-489.48552042379185	-670.2645073532029	3664.1863995283857	-498.5696565949992	-916.3987599130176	3539.655176644497	-431.6601534277844	-778.5513042500565	3553.9807991826547	-403.46540876151147	-553.7960081934035	3655.290794541986	-652.059703235771	-278.6500227439273	3694.655311214149	-688.946232848495	-22.83967741307341	3651.554156524266	-598.587157130531	85.18296982339689	3750.1163837640447	-553.202309979975	114.86093088448382	3747.2371298710073	-562.2430860555969	104.87290611890475	3710.4454977146743	-583.3010037395215	-614.6990467748739	3793.3637969589604	-385.0104124558814	-381.3254648582119	3984.6981502137387	-346.3600371846449	-125.79920741395259	3962.5527406668216	-262.99053106492346	15.611425754175649	3875.675820612167	-275.64965926525593	21.17491459006026	3851.6884492900144	-206.50435998452446	0.14519853870322802	3977.5267548114043	-217.6701781915989
490	8.166666666666666	-66.12637194107548	3789.035461947988	-546.1078436401315	287.7801647551322	3950.3174201476036	-523.5488361496452	641.1290685758607	4154.039032879994	-531.9853935782983	692.3008781483197	4019.006046782569	-453.99251783669837	687.0071175093283	3966.3560449439037	-502.39789020118735	681.471165201282	4196.2885015840975	-532.0751399678678	-106.98217407132124	3903.3202448642855	-363.34405023916577	235.90307551915623	4002.003366013808	-371.76259135756845	623.6570962665529	4261.576534028692	-455.8136887547354	670.7376079538378	3996.312594458555	-352.18817264697475	680.1310279138452	4122.505602019659	-342.8380292403967	676.8631518589922	4314.308392836468	-488.87314221773477	-671.3421967551167	3663.530104775973	-497.8884550962418	-916.4213778681404	3539.723284038714	-431.68335547384305	-778.5735148741944	3553.965366442584	-403.4555392434376	-553.6314083696511	3653.6309473608935	-650.620811212756	-278.6573955754974	3694.672584846725	-688.9513048567007	-22.790404862052153	3651.5592271686837	-599.4355127814134	85.17344344079748	3750.0161306875507	-553.1598193604016	114.34682630438337	3747.308359108578	-562.516701045017	104.8859972082966	3707.7454172304297	-583.0792974891616	-614.3781664454406	3793.5241838953675	-385.1202175919956	-381.34135509584485	3984.648509081273	-346.2914410236833	-125.77615722480624	3962.5476885743115	-262.9952862065479	16.578141671248886	3877.0388658615116	-276.545426472753	21.129720043940857	3849.593802139022	-205.1064697631981	0.6678827781012767	3977.923457362203	-217.8440522108714
491	8.183333333333334	-66.11396639057533	3789.0255530655086	-546.0545484737215	288.81014512937423	3950.7260940484935	-525.4871052421406	642.8820928327817	4154.822714516871	-531.7880894661669	693.2126347793567	4017.713288101989	-454.0826512007859	687.6714739182572	3963.665870179899	-501.70950985230587	681.0059064043995	4196.617251372186	-532.912218941301	-107.08623707564149	3903.161199125076	-363.25560583937107	235.96981438421065	4002.2708815907067	-372.64764050710835	623.8460327336699	4252.598599379113	-450.05077407025203	670.3384468453	3993.2972064277856	-352.0336545579684	682.6963332159096	4123.714881651025	-343.04046833519817	677.6970537050287	4313.149526602688	-488.4508399522797	-673.3202235044954	3662.057448732039	-496.1492623884135	-916.4530314781921	3539.8130204563085	-431.70943650102595	-778.5827941686765	3553.908403742869	-403.41642782403767	-554.045600635284	3653.1627426886575	-650.2824716386198	-278.7073154377344	3694.729592257106	-688.9985632010666	-22.82509029972148	3651.550200138176	-600.0142502375163	85.24405798221562	3750.5428117010842	-553.6039693693584	114.29653261943243	3747.4004099517997	-562.6445403049659	104.98740421757945	3707.677934080166	-583.7725226077928	-614.9904707439338	3793.039850834509	-384.9722248547647	-381.3365357828922	3984.5923533103296	-346.243419373968	-125.74481962519526	3962.4857605748007	-262.94554331739164	16.416000364835618	3877.0708891804975	-277.0914698488722	21.09900524404905	3849.1630718688893	-204.7942435517764	2.011403068434496	3978.72059698155	-217.8601918272326
492	8.2	-66.08489700296377	3789.079102774545	-546.0268361333294	289.7195926294491	3956.115692161401	-526.7625655490682	643.0488960770438	4155.124615678742	-531.8794216643602	694.9065998809232	4020.213858928716	-455.94219848394596	688.6352328614528	3963.7614806200954	-500.40582217988833	681.1333604995104	4196.172103178903	-534.5118747313851	-105.83005760237899	3903.9970785519017	-363.57474042392533	236.15933959032805	4001.6569561364863	-372.91952383160424	624.5835164607358	4248.829057242884	-448.41724845173485	668.6741648443639	3988.429162326035	-350.90746205784313	683.3862873427397	4123.9365606875135	-343.24451852403945	679.3837241903434	4316.055775298795	-491.0890818741174	-674.8054965538911	3660.409990048998	-493.7813644489124	-916.4904352372528	3539.890020143775	-431.72848798124244	-778.5979091229755	3553.878836967831	-403.38113398645953	-555.228377883735	3653.0917854469367	-650.4077163113776	-278.807935446917	3694.7938098834534	-689.1065390923216	-22.8752027582459	3651.5526619272623	-600.2049248578597	85.45590568146528	3752.4316685670296	-555.09546310099	114.86786416182075	3747.792666315063	-562.7503783331365	105.08380357121294	3708.2802407554095	-584.303233139229	-616.2373028109612	3792.1072711577067	-384.6039771592883	-381.29824979043497	3984.5438625046263	-346.23948939121	-125.72634612906492	3962.4116521306405	-262.85803495286467	15.484784740220492	3874.7198598061664	-276.3652925403371	21.09496920391647	3849.225799715698	-204.79900236970892	3.3229713795429556	3979.547507025182	-217.8548853426774
493	8.216666666666667	-66.05016986099808	3789.164486693837	-546.0455864656656	289.95842578505517	3961.751318572713	-526.3112196284872	641.5142509016518	4154.80220405004	-532.2269503321079	696.226491744877	4021.864500064323	-458.21474548862113	689.6266152044026	3966.6130254369377	-500.62269707605304	681.3170598858845	4193.460629627948	-535.8990640127098	-103.97003801773579	3905.36618483184	-364.1313239268193	236.67713724666584	4001.5301577398895	-372.33485107831143	624.9435914400108	4250.207229517289	-449.97166834176596	667.3733876481044	3985.9004194313657	-349.62169175395303	682.8831338266923	4123.779427470457	-343.4607587340887	680.802760400253	4320.889992545139	-494.7868626060323	-674.9368661599042	3660.105797324591	-492.0640649775122	-916.527060654023	3539.9361062126636	-431.7376268055667	-778.6213011456733	3553.892782353034	-403.36617970163127	-556.7909069774962	3652.9515962899122	-650.5316899262837	-278.93230317527747	3694.856938486874	-689.2518346512325	-22.895453905876224	3651.587212164942	-600.2252487554352	85.73885124576162	3755.144968294788	-557.2086575693523	115.27093786508895	3748.1643554480606	-562.8959224427113	105.11607983357598	3708.7673363311806	-584.0435831658957	-617.1584909678783	3791.3618480083915	-384.2353421369836	-381.23952399524745	3984.5300226076224	-346.2700275064479	-125.73403892794919	3962.3803689682663	-262.75838622420247	14.157358938862723	3869.5508002544275	-273.31219374820233	21.122080732051007	3849.830892772873	-205.13532966951436	3.9289390212704793	3980.036035945553	-217.88074708217118
